<svg width="1420" height="324" viewBox="0 0 1420 324" fill="none" xmlns="http://www.w3.org/2000/svg">
<path d="M173.063 156.82C213.863 175.86 233.923 224.48 218.623 267.32C210.463 291.12 195.843 306.08 174.083 312.88C162.523 316.62 150.283 318.66 137.023 318.66C107.103 319.34 76.843 319 47.263 319C36.383 319 25.163 319 14.283 319.34C13.943 319.34 13.943 319.34 13.943 319.34C12.583 319.34 11.223 319 9.86299 319C1.70299 318.32 0.342994 317.3 0.342994 308.46V307.78C0.00299472 290.44 0.682995 289.42 17.343 287.04C23.803 286.02 23.803 286.02 23.803 278.88V115.68C24.143 107.18 24.143 99.02 24.143 90.52C24.143 75.9 24.143 61.62 24.143 47.34C24.143 38.16 24.143 38.16 15.303 37.14H13.603C11.563 36.8 9.52299 36.8 7.82299 36.12C0.00299454 33.74 0.342994 24.22 1.70299 19.46C1.70299 18.1 1.36299 13.68 3.74299 10.96C4.76299 9.25998 6.46299 8.57998 8.50299 8.23999C12.583 7.55998 15.643 7.55998 18.703 7.55998L42.503 7.21998C65.623 7.21998 89.763 6.87999 113.223 7.21998C129.543 7.21998 148.923 8.23999 168.303 15.72C195.163 26.26 209.443 46.32 210.803 75.22C212.503 104.46 201.963 125.54 179.863 138.46C174.763 141.52 168.983 143.22 163.543 145.26C161.503 145.94 159.123 146.62 157.083 147.3C155.383 147.98 154.023 148.32 152.323 149C154.363 149.68 156.743 150.36 159.123 151.38L162.183 152.4C165.923 153.76 169.663 155.12 173.063 156.82ZM107.443 32.38C102.683 32.38 97.583 33.06 92.483 34.08C87.723 35.44 87.383 38.84 87.723 44.96V83.72L88.063 124.18C88.063 131.66 91.123 133.02 94.523 133.36H95.883C100.303 133.7 104.723 134.04 109.143 133.7C131.243 131.32 140.763 123.5 145.183 104.46C148.583 89.5 148.923 74.88 145.863 61.28C142.803 48.36 137.363 40.2 128.523 36.46C122.063 33.74 114.923 32.38 107.443 32.38ZM88.403 274.46C88.403 282.96 89.763 287.72 95.883 288.74C100.303 289.76 104.043 290.44 107.443 290.78C129.543 292.48 147.223 279.9 152.663 258.48C156.063 245.22 156.743 230.6 154.023 212.58C152.663 201.02 148.243 191.16 141.443 182.32C130.563 168.72 115.263 162.6 94.863 163.96C88.403 164.3 88.403 164.3 88.403 170.42C88.063 188.44 88.063 206.8 88.403 224.82V274.46ZM457.893 129.96C465.033 176.2 456.193 225.16 433.753 264.94C418.453 291.8 396.353 311.18 371.533 319C362.013 322.06 352.153 323.42 342.633 323.42C320.873 323.42 299.453 315.94 282.453 302C247.773 273.44 227.033 227.54 224.313 172.8C223.973 167.02 223.633 161.58 223.973 156.14C223.973 136.42 226.693 117.38 231.793 100.38C239.273 75.22 252.193 52.44 269.533 35.1C283.813 20.48 300.473 10.28 318.153 5.17999C336.513 0.0799918 356.913 1.09998 374.933 7.55998C424.573 25.24 450.413 82.36 457.893 129.96ZM306.253 266.98C312.373 279.9 320.533 288.4 331.413 293.16C340.593 297.58 349.773 297.24 358.273 292.14C366.093 287.72 372.213 281.26 376.973 272.76C391.933 246.58 392.953 212.58 393.633 182.66V175.86C393.973 172.46 393.973 168.72 393.973 164.98C393.973 160.56 393.973 156.14 393.973 151.72C393.633 119.42 392.953 75.22 372.553 45.3C365.073 34.42 354.873 27.96 344.673 26.94C343.653 26.94 342.973 26.94 342.293 26.94C332.093 26.94 321.213 32.38 313.733 41.56C306.933 49.38 302.173 59.92 298.433 74.54C289.253 112.62 287.553 157.84 293.333 209.18C295.373 228.56 297.753 248.96 306.253 266.98ZM567.312 294.18C569.692 297.58 569.352 302 567.992 308.8C565.952 318.32 565.272 319 555.412 319C553.372 319 551.332 319 549.632 319C541.472 319 533.652 319 525.832 319C518.012 319 510.192 319 502.372 319C498.632 319 494.552 319 490.472 319C483.672 319 476.872 319 470.072 318.66H468.712C463.272 318.32 460.552 315.6 460.552 310.16V307.44C460.212 291.8 460.552 290.1 472.452 289.76C474.152 289.76 475.852 289.76 477.892 289.42C482.652 289.08 483.672 286.7 483.672 280.92V278.2C483.672 277.18 483.672 44.28 483.672 40.88C483.672 36.8 481.972 35.1 478.232 34.42C477.892 34.42 477.552 34.42 477.212 34.42C476.532 34.42 475.512 34.42 474.832 34.08C473.812 34.08 472.452 33.74 471.092 33.4C467.012 32.72 463.272 32.38 462.592 29.66C460.892 24.56 461.232 18.78 461.572 13.34L461.912 12.32C461.912 9.59999 466.332 7.21998 468.712 7.21998C480.952 6.53999 492.172 6.19999 502.032 6.19999C515.972 6.19999 530.252 6.53999 544.192 6.87999H555.072C563.572 6.87999 565.272 8.57998 565.612 17.42C565.612 18.1 565.612 19.12 565.612 19.8C565.612 20.82 565.612 21.84 565.612 22.52C565.952 25.58 565.612 27.62 564.252 29.32C562.552 31.7 559.492 32.38 557.112 32.72L555.072 33.06C548.952 33.4 544.532 34.42 543.512 38.5C543.172 44.62 543.172 276.5 543.172 278.2V280.92C543.172 282.62 543.172 287.38 552.352 288.74H554.052C560.172 289.76 564.932 290.78 567.312 294.18ZM805.598 91.2C806.618 95.28 807.978 103.44 798.118 106.16C789.618 108.88 786.558 103.1 784.178 98.68L783.498 97.66C781.118 92.9 778.738 88.48 776.358 84.06C771.258 74.88 766.498 65.7 761.058 56.86C754.598 45.98 744.738 38.84 730.798 35.1C726.378 33.74 723.318 33.74 721.958 34.76C720.258 35.78 719.578 38.5 719.578 42.92C719.578 82.7 719.578 123.16 719.918 160.9C719.918 171.44 719.918 181.98 719.918 192.52C719.918 207.14 719.918 221.76 720.258 236.38C720.258 249.64 720.258 262.56 720.598 275.48C720.938 287.04 722.298 288.74 733.518 290.44C739.638 291.12 744.738 294.86 747.118 300.3C749.498 305.06 748.818 310.5 745.758 314.92C744.058 317.3 739.638 319 736.578 319C709.718 319 682.858 319 655.658 319H638.998C634.918 319 632.198 317.98 630.158 316.28C628.458 314.24 627.438 311.52 627.778 308.12C627.778 307.1 627.778 306.42 627.778 305.4C627.778 300.3 627.778 294.18 637.298 292.14C654.978 288.06 654.978 288.06 654.978 270.38C654.978 195.58 654.978 121.46 654.978 47.34C654.978 40.2 654.298 37.14 652.598 35.78C651.238 34.42 647.498 34.76 640.358 36.8C628.798 40.2 619.618 47.68 611.458 60.6C605.678 69.44 600.918 78.96 595.818 88.48C593.778 92.22 591.738 96.3 589.698 100.04C586.978 105.14 583.578 108.2 579.838 108.54C577.798 108.54 574.738 108.2 572.018 104.8C569.298 102.08 568.958 96.98 569.298 93.24C570.998 79.98 573.378 66.72 575.418 53.8L577.118 42.58C577.458 39.52 578.138 36.12 578.818 33.06C579.498 28.3 580.178 23.54 580.858 18.78C582.218 10.62 585.958 7.21998 594.458 7.55998C638.998 8.57998 685.918 8.91998 733.858 9.25998C746.778 9.25998 760.718 8.57998 777.718 7.21998C786.898 6.19999 791.318 9.59999 793.018 18.1C797.098 43.26 801.518 68.76 805.598 91.2ZM1004.38 305.06C1004.38 305.4 1004.38 306.08 1004.38 306.42C1004.38 313.9 999.282 318.66 991.122 318.66C981.942 319 972.762 319.34 963.242 319.34C953.722 319.34 944.202 319 934.342 319C925.502 319 916.322 318.66 907.142 318.66C905.442 318.66 904.082 317.98 902.722 316.96C901.702 315.6 901.022 314.24 901.022 312.54V294.18C901.022 290.78 903.742 287.72 907.482 287.38C910.202 287.04 912.242 287.04 914.622 286.7C918.022 286.02 920.402 285.34 921.082 283.98C922.102 282.28 922.102 279.9 920.742 276.16C917.002 262.9 910.542 237.74 910.202 237.06C908.162 229.92 904.762 227.2 898.302 227.2C879.602 227.54 861.242 227.54 842.882 227.54C834.382 227.54 830.642 230.94 830.302 238.42C830.302 238.76 827.582 259.84 827.242 272.42C827.242 276.16 834.042 282.28 838.802 283.98C852.062 288.4 850.362 298.26 849.002 305.4C848.662 306.76 848.662 308.46 848.322 309.82C847.642 318.66 840.842 318.66 836.082 318.66C835.062 318.66 834.042 318.66 833.362 318.66C821.122 318.66 808.882 318.66 796.642 318.66H776.922C773.862 318.66 769.442 318.66 767.062 316.28C766.042 314.92 765.362 312.88 765.702 310.84V308.12C766.722 298.94 767.402 288.74 772.842 286.36C790.862 277.86 796.302 262.22 801.742 245.22C802.422 243.52 803.102 241.48 803.782 239.44C807.522 229.24 809.902 218.02 812.622 207.48C813.642 202.72 815.002 198.3 816.022 193.54C818.062 185.38 820.102 177.56 822.142 169.4C826.562 152.06 831.322 134.38 836.082 117.04C839.482 104.46 843.222 91.54 846.962 79.3C848.322 74.54 849.682 70.12 851.042 65.36C857.162 44.62 854.782 33.4 846.282 15.72C845.602 14.36 845.602 12.66 846.622 11.3C847.302 9.93999 848.662 8.91998 850.362 8.91998L906.122 6.53999C908.842 6.19999 911.222 7.89999 912.242 10.62C913.262 13.68 914.282 16.4 915.642 19.46C918.702 28.3 921.762 37.14 924.482 45.98C931.962 72.16 939.102 98.34 945.902 123.84C948.622 134.04 951.002 144.24 953.722 154.44C956.782 167.02 960.182 179.94 963.582 192.52C969.022 211.9 974.802 231.62 980.242 250.66C982.622 258.82 984.662 266.64 987.042 274.46C989.082 281.26 992.482 282.96 998.262 286.02L1000.3 286.7C1000.98 287.04 1001.32 287.72 1002 288.06C1002.68 289.08 1003.36 289.76 1003.36 290.78C1003.7 292.14 1004.04 299.28 1004.38 305.06ZM896.942 192.86C898.302 190.82 897.622 186.4 895.922 180.28C893.882 172.46 891.842 164.3 890.142 156.14C886.742 143.56 883.682 130.98 880.622 118.4C879.262 113.3 877.902 108.2 875.862 101.74L873.142 93.58C873.142 92.9 872.802 92.22 872.802 91.54C872.462 90.52 872.122 88.14 871.442 87.8C871.442 87.8 871.102 87.8 870.762 87.8H870.422C865.662 103.44 860.902 120.1 856.482 136.76C853.762 147.98 850.702 159.2 847.982 170.42C845.942 178.24 844.242 186.06 842.202 193.88C842.202 194.22 842.202 194.22 842.202 194.56C842.202 194.56 842.542 194.9 842.882 194.9H854.102C864.642 194.9 874.502 194.9 884.702 194.9C890.822 194.9 895.582 194.56 896.942 192.86ZM1220.65 91.2C1221.67 95.28 1223.03 103.44 1213.17 106.16C1204.67 108.88 1201.61 103.1 1199.23 98.68L1198.55 97.66C1196.17 92.9 1193.79 88.48 1191.41 84.06C1186.31 74.88 1181.55 65.7 1176.11 56.86C1169.65 45.98 1159.79 38.84 1145.85 35.1C1141.43 33.74 1138.37 33.74 1137.01 34.76C1135.31 35.78 1134.63 38.5 1134.63 42.92C1134.63 82.7 1134.63 123.16 1134.97 160.9C1134.97 171.44 1134.97 181.98 1134.97 192.52C1134.97 207.14 1134.97 221.76 1135.31 236.38C1135.31 249.64 1135.31 262.56 1135.65 275.48C1135.99 287.04 1137.35 288.74 1148.57 290.44C1154.69 291.12 1159.79 294.86 1162.17 300.3C1164.55 305.06 1163.87 310.5 1160.81 314.92C1159.11 317.3 1154.69 319 1151.63 319C1124.77 319 1097.91 319 1070.71 319H1054.05C1049.97 319 1047.25 317.98 1045.21 316.28C1043.51 314.24 1042.49 311.52 1042.83 308.12C1042.83 307.1 1042.83 306.42 1042.83 305.4C1042.83 300.3 1042.83 294.18 1052.35 292.14C1070.03 288.06 1070.03 288.06 1070.03 270.38C1070.03 195.58 1070.03 121.46 1070.03 47.34C1070.03 40.2 1069.35 37.14 1067.65 35.78C1066.29 34.42 1062.55 34.76 1055.41 36.8C1043.85 40.2 1034.67 47.68 1026.51 60.6C1020.73 69.44 1015.97 78.96 1010.87 88.48C1008.83 92.22 1006.79 96.3 1004.75 100.04C1002.03 105.14 998.631 108.2 994.891 108.54C992.851 108.54 989.791 108.2 987.071 104.8C984.351 102.08 984.011 96.98 984.351 93.24C986.051 79.98 988.431 66.72 990.471 53.8L992.171 42.58C992.511 39.52 993.191 36.12 993.871 33.06C994.551 28.3 995.231 23.54 995.911 18.78C997.271 10.62 1001.01 7.21998 1009.51 7.55998C1054.05 8.57998 1100.97 8.91998 1148.91 9.25998C1161.83 9.25998 1175.77 8.57998 1192.77 7.21998C1201.95 6.19999 1206.37 9.59999 1208.07 18.1C1212.15 43.26 1216.57 68.76 1220.65 91.2ZM1419.43 305.06C1419.43 305.4 1419.43 306.08 1419.43 306.42C1419.43 313.9 1414.33 318.66 1406.17 318.66C1396.99 319 1387.81 319.34 1378.29 319.34C1368.77 319.34 1359.25 319 1349.39 319C1340.55 319 1331.37 318.66 1322.19 318.66C1320.49 318.66 1319.13 317.98 1317.77 316.96C1316.75 315.6 1316.07 314.24 1316.07 312.54V294.18C1316.07 290.78 1318.79 287.72 1322.53 287.38C1325.25 287.04 1327.29 287.04 1329.67 286.7C1333.07 286.02 1335.45 285.34 1336.13 283.98C1337.15 282.28 1337.15 279.9 1335.79 276.16C1332.05 262.9 1325.59 237.74 1325.25 237.06C1323.21 229.92 1319.81 227.2 1313.35 227.2C1294.65 227.54 1276.29 227.54 1257.93 227.54C1249.43 227.54 1245.69 230.94 1245.35 238.42C1245.35 238.76 1242.63 259.84 1242.29 272.42C1242.29 276.16 1249.09 282.28 1253.85 283.98C1267.11 288.4 1265.41 298.26 1264.05 305.4C1263.71 306.76 1263.71 308.46 1263.37 309.82C1262.69 318.66 1255.89 318.66 1251.13 318.66C1250.11 318.66 1249.09 318.66 1248.41 318.66C1236.17 318.66 1223.93 318.66 1211.69 318.66H1191.97C1188.91 318.66 1184.49 318.66 1182.11 316.28C1181.09 314.92 1180.41 312.88 1180.75 310.84V308.12C1181.77 298.94 1182.45 288.74 1187.89 286.36C1205.91 277.86 1211.35 262.22 1216.79 245.22C1217.47 243.52 1218.15 241.48 1218.83 239.44C1222.57 229.24 1224.95 218.02 1227.67 207.48C1228.69 202.72 1230.05 198.3 1231.07 193.54C1233.11 185.38 1235.15 177.56 1237.19 169.4C1241.61 152.06 1246.37 134.38 1251.13 117.04C1254.53 104.46 1258.27 91.54 1262.01 79.3C1263.37 74.54 1264.73 70.12 1266.09 65.36C1272.21 44.62 1269.83 33.4 1261.33 15.72C1260.65 14.36 1260.65 12.66 1261.67 11.3C1262.35 9.93999 1263.71 8.91998 1265.41 8.91998L1321.17 6.53999C1323.89 6.19999 1326.27 7.89999 1327.29 10.62C1328.31 13.68 1329.33 16.4 1330.69 19.46C1333.75 28.3 1336.81 37.14 1339.53 45.98C1347.01 72.16 1354.15 98.34 1360.95 123.84C1363.67 134.04 1366.05 144.24 1368.77 154.44C1371.83 167.02 1375.23 179.94 1378.63 192.52C1384.07 211.9 1389.85 231.62 1395.29 250.66C1397.67 258.82 1399.71 266.64 1402.09 274.46C1404.13 281.26 1407.53 282.96 1413.31 286.02L1415.35 286.7C1416.03 287.04 1416.37 287.72 1417.05 288.06C1417.73 289.08 1418.41 289.76 1418.41 290.78C1418.75 292.14 1419.09 299.28 1419.43 305.06ZM1311.99 192.86C1313.35 190.82 1312.67 186.4 1310.97 180.28C1308.93 172.46 1306.89 164.3 1305.19 156.14C1301.79 143.56 1298.73 130.98 1295.67 118.4C1294.31 113.3 1292.95 108.2 1290.91 101.74L1288.19 93.58C1288.19 92.9 1287.85 92.22 1287.85 91.54C1287.51 90.52 1287.17 88.14 1286.49 87.8C1286.49 87.8 1286.15 87.8 1285.81 87.8H1285.47C1280.71 103.44 1275.95 120.1 1271.53 136.76C1268.81 147.98 1265.75 159.2 1263.03 170.42C1260.99 178.24 1259.29 186.06 1257.25 193.88C1257.25 194.22 1257.25 194.22 1257.25 194.56C1257.25 194.56 1257.59 194.9 1257.93 194.9H1269.15C1279.69 194.9 1289.55 194.9 1299.75 194.9C1305.87 194.9 1310.63 194.56 1311.99 192.86Z" fill="#AFA36B"/>
</svg>
